<svg width="143" height="16" viewBox="0 0 143 16" fill="none" xmlns="http://www.w3.org/2000/svg">
<path d="M6.40822 5.83187C5.92822 5.83187 5.47222 5.92787 5.04022 6.11987C4.62422 6.29587 4.25622 6.54387 3.93621 6.86387C3.63222 7.16787 3.39222 7.53587 3.21621 7.96787C3.04022 8.38387 2.95221 8.83187 2.95221 9.31187C2.95221 9.79187 3.04022 10.2399 3.21621 10.6559C3.39222 11.0719 3.63222 11.4399 3.93621 11.7599C4.25622 12.0639 4.62422 12.3119 5.04022 12.5039C5.47222 12.6799 5.92822 12.7679 6.40822 12.7679C6.88822 12.7679 7.33622 12.6799 7.75222 12.5039C8.16822 12.3119 8.52821 12.0639 8.83222 11.7599C9.15222 11.4399 9.40022 11.0719 9.57622 10.6559C9.76822 10.2399 9.86421 9.79187 9.86421 9.31187V0.671875H12.0962V9.31187C12.0962 10.0959 11.9442 10.8319 11.6402 11.5199C11.3522 12.2079 10.9442 12.8159 10.4162 13.3439C9.90421 13.8559 9.30422 14.2639 8.61622 14.5679C7.92822 14.8559 7.19222 14.9999 6.40822 14.9999C5.62422 14.9999 4.88822 14.8559 4.20022 14.5679C3.51221 14.2639 2.90421 13.8559 2.37621 13.3439C1.86421 12.8159 1.45621 12.2079 1.15221 11.5199C0.864215 10.8319 0.720215 10.0959 0.720215 9.31187C0.720215 8.52787 0.864215 7.79187 1.15221 7.10387C1.45621 6.39987 1.86421 5.79187 2.37621 5.27987C2.90421 4.76787 3.51221 4.35987 4.20022 4.05587C4.88822 3.75187 5.62422 3.59987 6.40822 3.59987V5.83187Z" fill="#141515"/>
<path d="M15.8925 8.30387H23.0205C22.7965 7.51988 22.3645 6.87187 21.7245 6.35987C21.0845 5.84787 20.3325 5.59187 19.4685 5.59187C18.6045 5.59187 17.8445 5.84787 17.1885 6.35987C16.5485 6.87187 16.1165 7.51988 15.8925 8.30387ZM15.9885 10.5359C16.2445 11.2559 16.6845 11.8479 17.3085 12.3119C17.9325 12.7759 18.6525 13.0079 19.4685 13.0079C20.0765 13.0079 20.6365 12.8719 21.1485 12.5999C21.6765 12.3279 22.1085 11.9599 22.4445 11.4959H24.9645C24.7405 12.0399 24.4445 12.5439 24.0765 13.0079C23.7245 13.4559 23.3085 13.8479 22.8285 14.1839C22.3485 14.5199 21.8205 14.7839 21.2445 14.9759C20.6845 15.1519 20.0925 15.2399 19.4685 15.2399C18.6525 15.2399 17.8845 15.0879 17.1645 14.7839C16.4445 14.4639 15.8125 14.0399 15.2685 13.5119C14.7405 12.9679 14.3165 12.3359 13.9965 11.6159C13.6925 10.8959 13.5405 10.1279 13.5405 9.31187C13.5405 8.49587 13.6925 7.72787 13.9965 7.00787C14.3165 6.27187 14.7405 5.63987 15.2685 5.11187C15.8125 4.56787 16.4445 4.14387 17.1645 3.83987C17.8845 3.51987 18.6525 3.35987 19.4685 3.35987C20.2845 3.35987 21.0525 3.51987 21.7725 3.83987C22.4925 4.14387 23.1165 4.56787 23.6445 5.11187C24.1885 5.63987 24.6125 6.27187 24.9165 7.00787C25.2365 7.72787 25.3965 8.49587 25.3965 9.31187C25.3965 9.74387 25.3485 10.1519 25.2525 10.5359H15.9885Z" fill="#141515"/>
<path d="M37.2983 3.59987L32.8823 15.0479H30.0743L25.6343 3.59987H28.0103L31.4903 12.4799L34.9223 3.59987H37.2983Z" fill="#141515"/>
<path d="M38.7358 14.9999V8.03987C38.7358 7.43187 38.8478 6.85587 39.0718 6.31187C39.3118 5.76787 39.6318 5.29587 40.0318 4.89587C40.4318 4.49587 40.8958 4.18387 41.4238 3.95987C41.9678 3.71987 42.5438 3.59987 43.1518 3.59987C43.8238 3.59987 44.4398 3.73587 44.9998 4.00787C45.5758 4.26387 46.0638 4.62387 46.4638 5.08787C46.8798 4.62387 47.3678 4.26387 47.9278 4.00787C48.4878 3.73587 49.1038 3.59987 49.7758 3.59987C50.3838 3.59987 50.9598 3.71987 51.5038 3.95987C52.0478 4.18387 52.5198 4.49587 52.9198 4.89587C53.3198 5.29587 53.6318 5.76787 53.8558 6.31187C54.0958 6.85587 54.2158 7.43187 54.2158 8.03987V14.9999H51.9838V8.03987C51.9838 7.73587 51.9278 7.44787 51.8158 7.17587C51.7038 6.90387 51.5438 6.67187 51.3358 6.47987C51.1438 6.27187 50.9118 6.11187 50.6398 5.99987C50.3678 5.88787 50.0798 5.83187 49.7758 5.83187C49.4718 5.83187 49.1838 5.88787 48.9118 5.99987C48.6558 6.11187 48.4238 6.27187 48.2158 6.47987C48.0238 6.67187 47.8718 6.90387 47.7598 7.17587C47.6478 7.44787 47.5918 7.73587 47.5918 8.03987V14.9999H45.3598V8.03987C45.3598 7.73587 45.3038 7.44787 45.1918 7.17587C45.0798 6.90387 44.9198 6.67187 44.7118 6.47987C44.5198 6.27187 44.2878 6.11187 44.0158 5.99987C43.7438 5.88787 43.4558 5.83187 43.1518 5.83187C42.8478 5.83187 42.5598 5.88787 42.2878 5.99987C42.0318 6.11187 41.7998 6.27187 41.5918 6.47987C41.3998 6.67187 41.2478 6.90387 41.1358 7.17587C41.0238 7.44787 40.9678 7.73587 40.9678 8.03987V14.9999H38.7358Z" fill="#141515"/>
<path d="M58.0097 8.30387H65.1377C64.9137 7.51988 64.4817 6.87187 63.8417 6.35987C63.2017 5.84787 62.4497 5.59187 61.5857 5.59187C60.7217 5.59187 59.9617 5.84787 59.3057 6.35987C58.6657 6.87187 58.2337 7.51988 58.0097 8.30387ZM58.1057 10.5359C58.3617 11.2559 58.8017 11.8479 59.4257 12.3119C60.0497 12.7759 60.7697 13.0079 61.5857 13.0079C62.1937 13.0079 62.7537 12.8719 63.2657 12.5999C63.7937 12.3279 64.2257 11.9599 64.5617 11.4959H67.0817C66.8577 12.0399 66.5617 12.5439 66.1937 13.0079C65.8417 13.4559 65.4257 13.8479 64.9457 14.1839C64.4657 14.5199 63.9377 14.7839 63.3617 14.9759C62.8017 15.1519 62.2097 15.2399 61.5857 15.2399C60.7697 15.2399 60.0017 15.0879 59.2817 14.7839C58.5617 14.4639 57.9297 14.0399 57.3857 13.5119C56.8577 12.9679 56.4337 12.3359 56.1137 11.6159C55.8097 10.8959 55.6577 10.1279 55.6577 9.31187C55.6577 8.49587 55.8097 7.72787 56.1137 7.00787C56.4337 6.27187 56.8577 5.63987 57.3857 5.11187C57.9297 4.56787 58.5617 4.14387 59.2817 3.83987C60.0017 3.51987 60.7697 3.35987 61.5857 3.35987C62.4017 3.35987 63.1697 3.51987 63.8897 3.83987C64.6097 4.14387 65.2337 4.56787 65.7617 5.11187C66.3057 5.63987 66.7297 6.27187 67.0337 7.00787C67.3537 7.72787 67.5137 8.49587 67.5137 9.31187C67.5137 9.74387 67.4657 10.1519 67.3697 10.5359H58.1057Z" fill="#141515"/>
<path d="M78.6668 13.3199C78.1068 13.8799 77.4748 14.3039 76.7708 14.5919C76.0828 14.8639 75.3708 14.9999 74.6348 14.9999C73.8988 14.9999 73.1788 14.8639 72.4748 14.5919C71.7868 14.3039 71.1628 13.8799 70.6028 13.3199C70.0428 12.7759 69.6268 12.1519 69.3548 11.4479C69.0828 10.7439 68.9468 10.0319 68.9468 9.31187C68.9468 8.57587 69.0828 7.86387 69.3548 7.17587C69.6268 6.47187 70.0428 5.83987 70.6028 5.27987C71.1628 4.71987 71.7868 4.30387 72.4748 4.03187C73.1788 3.74387 73.8988 3.59987 74.6348 3.59987C75.3708 3.59987 76.0828 3.74387 76.7708 4.03187C77.4748 4.30387 78.1068 4.71987 78.6668 5.27987L77.0828 6.86387C76.5388 6.31987 75.9708 5.99187 75.3788 5.87987C74.7868 5.75187 74.2188 5.78387 73.6748 5.97587C73.1308 6.15188 72.6428 6.45587 72.2108 6.88787C71.7948 7.30387 71.4908 7.78387 71.2988 8.32787C71.1228 8.87187 71.0908 9.44788 71.2028 10.0559C71.3148 10.6479 71.6428 11.2159 72.1868 11.7599C72.5228 12.0959 72.8988 12.3519 73.3148 12.5279C73.7468 12.6879 74.1868 12.7679 74.6348 12.7679C75.0828 12.7679 75.5148 12.6879 75.9308 12.5279C76.3628 12.3519 76.7468 12.0959 77.0828 11.7599L78.6668 13.3199Z" fill="#141515"/>
<path d="M85.791 3.59987C86.575 3.59987 87.311 3.75187 87.999 4.05587C88.687 4.35987 89.287 4.76787 89.799 5.27987C90.327 5.79187 90.735 6.39987 91.023 7.10387C91.327 7.79187 91.479 8.52787 91.479 9.31187V14.9999H89.247V9.31187C89.247 8.83187 89.151 8.38387 88.959 7.96787C88.783 7.53587 88.535 7.16787 88.215 6.86387C87.911 6.54387 87.551 6.29587 87.135 6.11987C86.719 5.92787 86.271 5.83187 85.791 5.83187V3.59987ZM82.335 0.671875V14.9999H80.103V0.671875H82.335Z" fill="#141515"/>
<path d="M104.299 9.31187V14.9999H102.067V9.31187C102.067 8.83187 101.971 8.38387 101.779 7.96787C101.603 7.53587 101.355 7.16787 101.035 6.86387C100.731 6.54387 100.371 6.29587 99.9553 6.11987C99.5393 5.92787 99.0913 5.83187 98.6113 5.83187C98.1313 5.83187 97.6753 5.92787 97.2433 6.11987C96.8273 6.29587 96.4593 6.54387 96.1393 6.86387C95.8353 7.16787 95.5953 7.53587 95.4193 7.96787C95.2433 8.38387 95.1553 8.83187 95.1553 9.31187C95.1553 9.79187 95.2433 10.2399 95.4193 10.6559C95.5953 11.0719 95.8353 11.4399 96.1393 11.7599C96.4593 12.0639 96.8273 12.3119 97.2433 12.5039C97.6753 12.6799 98.1313 12.7679 98.6113 12.7679V14.9999C97.8273 14.9999 97.0913 14.8559 96.4033 14.5679C95.7153 14.2639 95.1073 13.8559 94.5793 13.3439C94.0673 12.8159 93.6593 12.2079 93.3553 11.5199C93.0673 10.8319 92.9233 10.0959 92.9233 9.31187C92.9233 8.52787 93.0673 7.79187 93.3553 7.10387C93.6593 6.39987 94.0673 5.79187 94.5793 5.27987C95.1073 4.76787 95.7153 4.35987 96.4033 4.05587C97.0913 3.75187 97.8273 3.59987 98.6113 3.59987C99.3953 3.59987 100.131 3.75187 100.819 4.05587C101.507 4.35987 102.107 4.76787 102.619 5.27987C103.147 5.79187 103.555 6.39987 103.843 7.10387C104.147 7.79187 104.299 8.52787 104.299 9.31187Z" fill="#141515"/>
<path d="M114.888 14.9999V9.31187C114.888 8.83187 114.792 8.38387 114.6 7.96787C114.424 7.53587 114.176 7.16787 113.856 6.86387C113.552 6.54387 113.192 6.29587 112.776 6.11987C112.36 5.92787 111.912 5.83187 111.432 5.83187C110.952 5.83187 110.496 5.92787 110.064 6.11987C109.648 6.29587 109.28 6.54387 108.96 6.86387C108.656 7.16787 108.416 7.53587 108.24 7.96787C108.064 8.38387 107.976 8.83187 107.976 9.31187V14.9999H105.744V9.31187C105.744 8.52787 105.888 7.79187 106.176 7.10387C106.48 6.39987 106.888 5.79187 107.4 5.27987C107.928 4.76787 108.536 4.35987 109.224 4.05587C109.912 3.75187 110.648 3.59987 111.432 3.59987C112.216 3.59987 112.952 3.75187 113.64 4.05587C114.328 4.35987 114.928 4.76787 115.44 5.27987C115.968 5.79187 116.376 6.39987 116.664 7.10387C116.968 7.79187 117.12 8.52787 117.12 9.31187V14.9999H114.888Z" fill="#141515"/>
<path d="M120.796 3.64787V14.9999H118.564V3.64787H120.796Z" fill="#141515"/>
<path d="M131.964 13.3199C131.404 13.8799 130.772 14.3039 130.068 14.5919C129.38 14.8639 128.668 14.9999 127.932 14.9999C127.196 14.9999 126.476 14.8639 125.772 14.5919C125.084 14.3039 124.46 13.8799 123.9 13.3199C123.34 12.7759 122.924 12.1519 122.652 11.4479C122.38 10.7439 122.244 10.0319 122.244 9.31187C122.244 8.57587 122.38 7.86387 122.652 7.17587C122.924 6.47187 123.34 5.83987 123.9 5.27987C124.46 4.71987 125.084 4.30387 125.772 4.03187C126.476 3.74387 127.196 3.59987 127.932 3.59987C128.668 3.59987 129.38 3.74387 130.068 4.03187C130.772 4.30387 131.404 4.71987 131.964 5.27987L130.38 6.86387C129.836 6.31987 129.268 5.99187 128.676 5.87987C128.084 5.75187 127.516 5.78387 126.972 5.97587C126.428 6.15188 125.94 6.45587 125.508 6.88787C125.092 7.30387 124.788 7.78387 124.596 8.32787C124.42 8.87187 124.388 9.44788 124.5 10.0559C124.612 10.6479 124.94 11.2159 125.484 11.7599C125.82 12.0959 126.196 12.3519 126.612 12.5279C127.044 12.6879 127.484 12.7679 127.932 12.7679C128.38 12.7679 128.812 12.6879 129.228 12.5279C129.66 12.3519 130.044 12.0959 130.38 11.7599L131.964 13.3199Z" fill="#141515"/>
<path d="M135.632 11.3279V11.5439C135.632 11.6879 135.68 11.8559 135.776 12.0479C135.888 12.2399 136.048 12.4239 136.256 12.5999C136.464 12.7759 136.72 12.9279 137.024 13.0559C137.344 13.1679 137.704 13.2239 138.104 13.2239C138.536 13.2239 138.904 13.1679 139.208 13.0559C139.528 12.9439 139.784 12.8079 139.976 12.6479C140.184 12.4719 140.336 12.2879 140.432 12.0959C140.528 11.9039 140.576 11.7199 140.576 11.5439C140.576 11.3359 140.392 11.1599 140.024 11.0159C139.672 10.8719 139.264 10.7519 138.8 10.6559C138.336 10.5599 137.88 10.4879 137.432 10.4399C137 10.3759 136.704 10.3279 136.544 10.2959C136.144 10.2159 135.752 10.1039 135.368 9.95988C135 9.79988 134.664 9.59987 134.36 9.35987C134.072 9.11987 133.84 8.82388 133.664 8.47187C133.488 8.11987 133.4 7.69588 133.4 7.19987C133.4 6.57587 133.536 6.02387 133.808 5.54387C134.08 5.06387 134.44 4.66387 134.888 4.34387C135.336 4.00787 135.84 3.75187 136.4 3.57587C136.96 3.39987 137.528 3.31187 138.104 3.31187C138.648 3.31187 139.192 3.40787 139.736 3.59987C140.296 3.79187 140.8 4.06387 141.248 4.41587C141.712 4.76787 142.088 5.18387 142.376 5.66387C142.664 6.12787 142.808 6.63987 142.808 7.19987V7.43987H140.576V7.19987C140.576 7.07188 140.512 6.91187 140.384 6.71987C140.272 6.52787 140.104 6.34387 139.88 6.16787C139.672 5.99187 139.416 5.84788 139.112 5.73588C138.808 5.60787 138.472 5.54387 138.104 5.54387C137.688 5.54387 137.32 5.59987 137 5.71187C136.696 5.80787 136.44 5.93587 136.232 6.09587C136.04 6.25587 135.888 6.43987 135.776 6.64787C135.68 6.83987 135.632 7.02387 135.632 7.19987C135.632 7.45587 135.808 7.66387 136.16 7.82387C136.512 7.98387 136.912 8.11187 137.36 8.20787C137.824 8.30387 138.272 8.38387 138.704 8.44788C139.152 8.49587 139.464 8.53587 139.64 8.56787C140.04 8.64787 140.424 8.75988 140.792 8.90388C141.176 9.04788 141.512 9.23987 141.8 9.47987C142.104 9.70387 142.344 9.98388 142.52 10.3199C142.712 10.6559 142.808 11.0639 142.808 11.5439C142.808 12.1519 142.672 12.6959 142.4 13.1759C142.144 13.6559 141.8 14.0639 141.368 14.3999C140.936 14.7359 140.432 14.9919 139.856 15.1679C139.296 15.3599 138.712 15.4559 138.104 15.4559C137.512 15.4559 136.936 15.3519 136.376 15.1439C135.816 14.9519 135.312 14.6879 134.864 14.3519C134.432 13.9999 134.08 13.5839 133.808 13.1039C133.536 12.6239 133.4 12.1039 133.4 11.5439V11.3279H135.632Z" fill="#141515"/>
</svg>
