<svg width="23" height="15" viewBox="0 0 23 15" fill="none" xmlns="http://www.w3.org/2000/svg">
<g clip-path="url(#clip0_104_1527)">
<path d="M9.63461 6.61819C10.1206 6.37374 10.488 6.10148 10.7398 5.80726C11.1877 5.27738 11.4087 4.57477 11.4087 3.70382C11.4087 2.8563 11.1877 2.13174 10.7456 1.52427C10.0079 0.534765 8.75927 0.028301 6.99395 0.00195312H0V14.2781H6.52115C7.25597 14.2781 7.93663 14.2151 8.56605 14.0863C9.19548 13.9561 9.74 13.7175 10.2011 13.3691C10.611 13.0661 10.9535 12.6899 11.2257 12.2464C11.6561 11.576 11.8713 10.8163 11.8713 9.97022C11.8713 9.15051 11.6824 8.45229 11.3077 7.87849C10.9286 7.30469 10.3724 6.88459 9.63461 6.61819ZM2.88511 2.48158H6.03517C6.72754 2.48158 7.29842 2.55623 7.74633 2.70407C8.26451 2.91924 8.5236 3.35691 8.5236 4.02439C8.5236 4.62307 8.32599 5.04171 7.93516 5.27738C7.5414 5.51304 7.03054 5.63161 6.40405 5.63161H2.88511V2.48158ZM7.86636 11.5496C7.51798 11.718 7.02762 11.8014 6.39965 11.8014H2.88511V7.99413H6.44796C7.0686 7.99852 7.55165 8.08049 7.8971 8.23419C8.51189 8.5123 8.81782 9.02169 8.81782 9.76675C8.81782 10.645 8.50165 11.2364 7.86636 11.5496Z" fill="#7F838D"/>
<path d="M21.1669 0.09375H14.9648V1.87076H21.1669V0.09375Z" fill="#7F838D"/>
<path d="M22.903 7.04377C22.7742 6.21674 22.4902 5.48925 22.0482 4.86129C21.5636 4.1499 20.9489 3.6288 20.2009 3.29945C19.4558 2.96864 18.6171 2.80323 17.6832 2.8047C16.1155 2.8047 14.842 3.29506 13.8568 4.26846C12.8746 5.2448 12.3828 6.64855 12.3828 8.47826C12.3828 10.4295 12.9259 11.8391 14.0179 12.7042C15.1054 13.5707 16.3614 14.0025 17.7871 14.0025C19.5129 14.0025 20.8552 13.4887 21.8139 12.4641C22.4273 11.8171 22.7742 11.1804 22.8503 10.5553H19.993C19.8276 10.8642 19.6358 11.1057 19.4163 11.2814C19.0181 11.6034 18.4999 11.7644 17.8647 11.7644C17.2601 11.7644 16.7478 11.6312 16.3204 11.3663C15.6148 10.9418 15.246 10.1982 15.1991 9.13988H22.9967C23.0084 8.22795 22.9791 7.52681 22.903 7.04377ZM15.2694 7.31749C15.3719 6.63098 15.6207 6.08646 16.0159 5.68393C16.4111 5.28285 16.9703 5.08085 17.6861 5.07939C18.3463 5.07939 18.8981 5.26822 19.3475 5.64733C19.791 6.02938 20.0413 6.58414 20.0925 7.31749H15.2694Z" fill="#7F838D"/>
</g>
<defs>
<clipPath id="clip0_104_1527">
<rect width="23" height="15" fill="white"/>
</clipPath>
</defs>
</svg>
