<svg width="17" height="17" viewBox="0 0 17 17" fill="none" xmlns="http://www.w3.org/2000/svg">
<path d="M3.59107 2.27594V14.2759C3.59146 14.3974 3.62496 14.5165 3.68799 14.6204C3.75102 14.7243 3.84118 14.809 3.94878 14.8654C4.05637 14.9218 4.17731 14.9479 4.2986 14.9407C4.41988 14.9335 4.5369 14.8934 4.63708 14.8246L13.3037 8.8246C13.6631 8.57594 13.6631 7.97727 13.3037 7.72794L4.63708 1.72794C4.53711 1.65849 4.42003 1.61776 4.29854 1.61018C4.17706 1.6026 4.05582 1.62846 3.948 1.68495C3.84018 1.74143 3.74991 1.82639 3.68698 1.93058C3.62405 2.03477 3.59088 2.15422 3.59107 2.27594Z" fill="#676767"/>
</svg>
