<svg width="24" height="24" viewBox="0 0 24 24" fill="none" xmlns="http://www.w3.org/2000/svg">
<g clip-path="url(#clip0_104_1523)">
<path d="M6.49336 19.2452C6.83395 18.6004 8.73556 15.3428 13.5709 13.6413C14.789 16.8366 15.3234 19.5074 15.4738 20.4152C14.4094 20.8606 13.2253 21.1033 12.0001 21.1033C9.92554 21.1033 8.01583 20.4031 6.49336 19.2452ZM12.0001 1.08008C5.9722 1.08008 1.08008 5.9722 1.08008 12.0001C1.08008 18.0279 5.9722 22.9201 12.0001 22.9201C18.0062 22.9201 22.9201 18.0282 22.9201 12.0001C22.9201 5.97205 18.0062 1.08008 12.0001 1.08008ZM14.7232 11.087C14.5465 10.6747 14.3684 10.2591 14.1735 9.85924C17.171 8.61961 18.7146 6.87955 19.1299 6.36127C20.3218 7.86135 21.0276 9.72388 21.0992 11.7662C20.3944 11.6299 17.6604 11.1661 14.8838 11.4816C14.8635 11.4321 14.843 11.381 14.8222 11.3291C14.79 11.2486 14.757 11.1658 14.724 11.0888L14.7232 11.087ZM12.0001 2.91848C14.2624 2.91848 16.3605 3.7625 17.9499 5.12707C17.6166 5.56 16.2477 7.1686 13.3298 8.28676C12.0105 5.87145 10.5736 3.85861 10.085 3.17414C10.0703 3.15355 10.0564 3.13415 10.0435 3.11599C10.6713 2.98967 11.318 2.91848 12.0001 2.91848ZM8.03051 3.81376C8.40068 4.32608 9.88592 6.42957 11.3005 8.92113C7.38454 9.93727 3.92555 9.99748 3.09992 10.0007C3.74295 7.26314 5.58203 4.99919 8.03051 3.81376ZM2.89688 12.0217V12.0201V12.0187V12.0171V12.0156V12.014V12.0124V12.011V12.0094V12.0079V12.0063V12.0048V12.0032V12.0015V12V11.9984V11.9968V11.9953V11.9937V11.9921V11.9905V11.9889V11.9873V11.9857V11.9841V11.9824V11.9808V11.9792V11.9776V11.976V11.9744V11.9727V11.9711V11.9695V11.9678V11.9662V11.9645V11.9629V11.9612V11.9596V11.9579V11.9563V11.9546V11.953V11.9513V11.9496V11.948V11.9463V11.9446V11.9429V11.9413V11.9396V11.9379V11.9362V11.9345V11.9329V11.9312V11.9295V11.9278V11.9261V11.9244V11.9227V11.921V11.9193V11.9176V11.9159V11.9143V11.9125V11.9108V11.9091V11.9074V11.9057V11.904V11.9023V11.9006V11.8989V11.8972V11.8955V11.8938V11.8921V11.8904V11.8887V11.887V11.8853V11.8836V11.8818V11.8801V11.8784V11.8767V11.875V11.8733V11.8716V11.8699V11.8682V11.8665V11.8648C3.74188 11.8823 7.90976 11.8372 12.197 10.5671C12.4215 11.0163 12.644 11.4643 12.8515 11.9268C12.8379 11.9305 12.824 11.9342 12.8095 11.938C12.8025 11.9398 12.7954 11.9416 12.7882 11.9435C12.7333 11.9577 12.672 11.9736 12.6106 11.9941C8.16497 13.429 5.65208 17.164 5.13595 17.9785C3.72897 16.3735 2.89688 14.2891 2.89688 12.0217ZM20.9576 13.556C20.5405 15.984 19.165 18.0907 17.2287 19.4414C17.0858 18.6152 16.5874 16.1514 15.511 13.1769C18.1089 12.8042 20.3816 13.3983 20.9576 13.556Z" fill="#7F838D" stroke="#7F838D" stroke-width="0.2"/>
</g>
<defs>
<clipPath id="clip0_104_1523">
<rect width="24" height="24" fill="white"/>
</clipPath>
</defs>
</svg>
