<svg width="24" height="24" viewBox="0 0 24 24" fill="none" xmlns="http://www.w3.org/2000/svg">
<path d="M12.6874 21C12.6245 21 12.5615 21 12.4982 20.9997C11.0088 21.0033 9.63268 20.9655 8.29438 20.884C7.0674 20.8094 5.94741 20.3854 5.0553 19.658C4.1945 18.9561 3.60667 18.007 3.30819 16.8375C3.04842 15.8193 3.03465 14.8198 3.02145 13.8531C3.01189 13.1595 3.00203 12.3375 3 11.5017C3.00203 10.6624 3.01189 9.84048 3.02145 9.14686C3.03465 8.18027 3.04842 7.18078 3.30819 6.16244C3.60667 4.99291 4.1945 4.04387 5.0553 3.34198C5.94741 2.61457 7.0674 2.19057 8.29452 2.11591C9.63283 2.03459 11.0093 1.99661 12.5018 2.00024C13.9916 1.99705 15.3673 2.03459 16.7056 2.11591C17.9326 2.19057 19.0526 2.61457 19.9447 3.34198C20.8056 4.04387 21.3933 4.99291 21.6918 6.16244C21.9516 7.18063 21.9654 8.18027 21.9785 9.14686C21.9881 9.84048 21.9981 10.6624 22 11.4982V11.5017C21.9981 12.3375 21.9881 13.1595 21.9785 13.8531C21.9654 14.8197 21.9517 15.8192 21.6918 16.8375C21.3933 18.007 20.8056 18.9561 19.9447 19.658C19.0526 20.3854 17.9326 20.8094 16.7056 20.884C15.424 20.962 14.1074 21 12.6874 21ZM12.4982 19.5153C13.9633 19.5188 15.3086 19.4818 16.6155 19.4024C17.5432 19.346 18.3476 19.0449 19.0066 18.5076C19.6158 18.0108 20.0353 17.3254 20.2535 16.4705C20.4698 15.6229 20.4822 14.7128 20.4943 13.8328C20.5037 13.1438 20.5135 12.3277 20.5156 11.5C20.5135 10.6721 20.5037 9.85614 20.4943 9.16715C20.4822 8.2871 20.4698 7.37705 20.2535 6.52933C20.0353 5.67437 19.6158 4.989 19.0066 4.49223C18.3476 3.95501 17.5432 3.65393 16.6155 3.59754C15.3086 3.51796 13.9633 3.48128 12.5017 3.48447C11.0368 3.48099 9.69139 3.51796 8.38454 3.59754C7.45677 3.65393 6.65237 3.95501 5.99336 4.49223C5.38422 4.989 4.9647 5.67437 4.74653 6.52933C4.53024 7.37705 4.51777 8.28696 4.50574 9.16715C4.49632 9.85672 4.48646 10.6733 4.48443 11.5017C4.48646 12.3265 4.49632 13.1432 4.50574 13.8328C4.51777 14.7128 4.53024 15.6229 4.74653 16.4705C4.9647 17.3254 5.38422 18.0108 5.99336 18.5076C6.65237 19.0448 7.45677 19.3459 8.38454 19.4023C9.69139 19.4818 11.0371 19.519 12.4982 19.5153ZM12.4628 16.1387C9.90507 16.1387 7.82397 14.0578 7.82397 11.5C7.82397 8.94217 9.90507 6.86129 12.4628 6.86129C15.0207 6.86129 17.1017 8.94217 17.1017 11.5C17.1017 14.0578 15.0207 16.1387 12.4628 16.1387ZM12.4628 8.34567C10.7235 8.34567 9.3084 9.76076 9.3084 11.5C9.3084 13.2392 10.7235 14.6543 12.4628 14.6543C14.2022 14.6543 15.6172 13.2392 15.6172 11.5C15.6172 9.76076 14.2022 8.34567 12.4628 8.34567ZM17.6212 5.37691C17.0064 5.37691 16.5079 5.87528 16.5079 6.49019C16.5079 7.10511 17.0064 7.60348 17.6212 7.60348C18.2362 7.60348 18.7345 7.10511 18.7345 6.49019C18.7345 5.87528 18.2362 5.37691 17.6212 5.37691Z" fill="#7F838D" stroke="#7F838D" stroke-width="0.4"/>
</svg>
