<svg width="24" height="24" viewBox="0 0 24 24" fill="none" xmlns="http://www.w3.org/2000/svg">
<path d="M5.29906 3C3.90891 3 3 3.91284 3 5.11265C3 6.28595 3.88183 7.22483 5.24571 7.22483H5.2721C6.68944 7.22483 7.5715 6.28595 7.5715 5.11265C7.545 3.91284 6.68944 3 5.29906 3Z" fill="#7F838D"/>
<path d="M3.24219 8.89258H7.30618V21.1192H3.24219V8.89258Z" fill="#7F838D"/>
<path d="M17.2754 8.60742C15.083 8.60742 13.6129 10.6675 13.6129 10.6675V8.89439H9.54883V21.1211H13.6127V14.2932C13.6127 13.9277 13.6392 13.5627 13.7466 13.3014C14.0404 12.5714 14.7089 11.8153 15.8317 11.8153C17.3023 11.8153 17.8904 12.9365 17.8904 14.5802V21.1211H21.9541V14.1105C21.9541 10.355 19.949 8.60742 17.2754 8.60742Z" fill="#7F838D"/>
</svg>
