<svg width="70" height="69" viewBox="0 0 70 69" fill="none" xmlns="http://www.w3.org/2000/svg">
<rect x="1.79199" y="1.24512" width="66.3396" height="66.3396" rx="32.6824" fill="white"/>
<rect x="1.79199" y="1.24512" width="66.3396" height="66.3396" rx="32.6824" stroke="#FCFAFF" stroke-width="2"/>
<path d="M36.1805 30.6132V27.0063C36.1805 26.7626 36.2656 26.5552 36.4359 26.3843C36.6068 26.214 36.8141 26.1289 37.0579 26.1289H42.3707C42.6145 26.1289 42.8218 26.214 42.9927 26.3843C43.163 26.5552 43.2481 26.7626 43.2481 27.0063V30.6132C43.2481 30.8569 43.163 31.0642 42.9927 31.2351C42.8218 31.4054 42.6145 31.4905 42.3707 31.4905H37.0579C36.8141 31.4905 36.6068 31.4054 36.4359 31.2351C36.2656 31.0642 36.1805 30.8569 36.1805 30.6132ZM26.6758 34.0251V27.0063C26.6758 26.7626 26.7612 26.5552 26.9322 26.3843C27.1024 26.214 27.3094 26.1289 27.5531 26.1289H32.866C33.1097 26.1289 33.3171 26.214 33.488 26.3843C33.6583 26.5552 33.7434 26.7626 33.7434 27.0063V34.0251C33.7434 34.2688 33.6583 34.4762 33.488 34.6471C33.3171 34.8174 33.1097 34.9025 32.866 34.9025H27.5531C27.3094 34.9025 27.1024 34.8174 26.9322 34.6471C26.7612 34.4762 26.6758 34.2688 26.6758 34.0251ZM36.1805 41.8239V34.805C36.1805 34.5613 36.2656 34.354 36.4359 34.1831C36.6068 34.0128 36.8141 33.9276 37.0579 33.9276H42.3707C42.6145 33.9276 42.8218 34.0128 42.9927 34.1831C43.163 34.354 43.2481 34.5613 43.2481 34.805V41.8239C43.2481 42.0676 43.163 42.2749 42.9927 42.4458C42.8218 42.6161 42.6145 42.7012 42.3707 42.7012H37.0579C36.8141 42.7012 36.6068 42.6161 36.4359 42.4458C36.2656 42.2749 36.1805 42.0676 36.1805 41.8239ZM26.6758 41.8239V38.217C26.6758 37.9732 26.7612 37.7659 26.9322 37.595C27.1024 37.4247 27.3094 37.3396 27.5531 37.3396H32.866C33.1097 37.3396 33.3171 37.4247 33.488 37.595C33.6583 37.7659 33.7434 37.9732 33.7434 38.217V41.8239C33.7434 42.0676 33.6583 42.2749 33.488 42.4458C33.3171 42.6161 33.1097 42.7012 32.866 42.7012H27.5531C27.3094 42.7012 27.1024 42.6161 26.9322 42.4458C26.7612 42.2749 26.6758 42.0676 26.6758 41.8239Z" fill="#FF671D"/>
</svg>
