<svg width="69" height="69" viewBox="0 0 69 69" fill="none" xmlns="http://www.w3.org/2000/svg">
<rect x="1.09375" y="1.24512" width="66.3396" height="66.3396" rx="32.6824" fill="white"/>
<rect x="1.09375" y="1.24512" width="66.3396" height="66.3396" rx="32.6824" stroke="#FCFAFF" stroke-width="2"/>
<g clip-path="url(#clip0_104_658)">
<path d="M43.4753 31.0519L42.3055 30.5157L43.4753 29.9795L44.0115 28.8097L44.5477 29.9795L45.7175 30.5157L44.5477 31.0519L44.0115 32.2217L43.4753 31.0519ZM40.2827 26.4457L38.528 25.6415L40.2827 24.8372L41.087 23.0825L41.8912 24.8372L43.6459 25.6415L41.8912 26.4457L41.087 28.2004L40.2827 26.4457ZM31.3385 43.7492C30.8511 43.7492 30.4287 43.5786 30.0713 43.2374C29.7138 42.8962 29.5188 42.4819 29.4863 41.9945H33.1907C33.1583 42.4819 32.9633 42.8962 32.6058 43.2374C32.2484 43.5786 31.826 43.7492 31.3385 43.7492ZM28.414 40.6297C28.2028 40.6297 28.0283 40.5608 27.8905 40.423C27.7521 40.2846 27.6829 40.1098 27.6829 39.8986C27.6829 39.7036 27.7521 39.533 27.8905 39.3868C28.0283 39.2405 28.2028 39.1674 28.414 39.1674H34.2631C34.4743 39.1674 34.6491 39.2405 34.7875 39.3868C34.9253 39.533 34.9942 39.7036 34.9942 39.8986C34.9942 40.1098 34.9253 40.2846 34.7875 40.423C34.6491 40.5608 34.4743 40.6297 34.2631 40.6297H28.414ZM27.8291 37.827C26.8055 37.1934 25.9974 36.3648 25.4047 35.3412C24.8113 34.3176 24.5146 33.1965 24.5146 31.978C24.5146 30.077 25.1766 28.4643 26.5004 27.1398C27.8249 25.816 29.4376 25.1541 31.3385 25.1541C33.2395 25.1541 34.8522 25.816 36.1767 27.1398C37.5005 28.4643 38.1624 30.077 38.1624 31.978C38.1624 33.1965 37.8661 34.3176 37.2734 35.3412C36.68 36.3648 35.8716 37.1934 34.848 37.827H27.8291Z" fill="#FFCB14"/>
</g>
<defs>
<clipPath id="clip0_104_658">
<rect width="23.3962" height="23.3962" fill="white" transform="translate(22.5654 22.7168)"/>
</clipPath>
</defs>
</svg>
