<svg width="67" height="67" viewBox="0 0 67 67" fill="none" xmlns="http://www.w3.org/2000/svg">
<rect x="1.24512" y="1.24512" width="64.3899" height="64.3899" rx="32.195" fill="white"/>
<rect x="1.24512" y="1.24512" width="64.3899" height="64.3899" rx="32.195" stroke="#FCFAFF" stroke-width="2"/>
<path d="M33.4401 35.999L30.8811 33.4401L33.4401 30.8811L35.999 33.4401L33.4401 35.999ZM31.3685 28.8339L29.3457 26.8111L33.4401 22.7168L37.5344 26.8111L35.5116 28.8339L33.4401 26.7624L31.3685 28.8339ZM26.8111 37.5344L22.7168 33.4401L26.8111 29.3457L28.8339 31.3685L26.7624 33.4401L28.8339 35.5116L26.8111 37.5344ZM40.069 37.5344L38.0462 35.5116L40.1177 33.4401L38.0462 31.3685L40.069 29.3457L44.1633 33.4401L40.069 37.5344ZM33.4401 44.1633L29.3457 40.069L31.3685 38.0462L33.4401 40.1177L35.5116 38.0462L37.5344 40.069L33.4401 44.1633Z" fill="#2400FF"/>
</svg>
