<svg width="70" height="69" viewBox="0 0 70 69" fill="none" xmlns="http://www.w3.org/2000/svg">
<rect x="1.94336" y="1.24512" width="66.3396" height="66.3396" rx="32.6824" fill="white"/>
<rect x="1.94336" y="1.24512" width="66.3396" height="66.3396" rx="32.6824" stroke="#FCFAFF" stroke-width="2"/>
<path d="M35.1135 43.6758C33.83 43.6758 32.6238 43.4321 31.4949 42.9447C30.3654 42.4573 29.3863 41.7992 28.5577 40.9706C27.7291 40.142 27.0711 39.1629 26.5837 38.0334C26.0962 36.9046 25.8525 35.6984 25.8525 34.4148C25.8525 33.1313 26.0962 31.9247 26.5837 30.7952C27.0711 29.6664 27.7291 28.6876 28.5577 27.859C29.3863 27.0304 30.3654 26.3724 31.4949 25.8849C32.6238 25.3975 33.83 25.1538 35.1135 25.1538C36.3971 25.1538 37.6036 25.3975 38.7331 25.8849C39.862 26.3724 40.8407 27.0304 41.6694 27.859C42.498 28.6876 43.156 29.6664 43.6434 30.7952C44.1308 31.9247 44.3746 33.1313 44.3746 34.4148C44.3746 35.6984 44.1308 36.9046 43.6434 38.0334C43.156 39.1629 42.498 40.142 41.6694 40.9706C40.8407 41.7992 39.862 42.4573 38.7331 42.9447C37.6036 43.4321 36.3971 43.6758 35.1135 43.6758ZM34.1387 42.1648V40.2639C33.6025 40.2639 33.1437 40.0731 32.7622 39.6916C32.3801 39.3095 32.189 38.8503 32.189 38.3142V37.3393L27.5098 32.6601C27.461 32.9526 27.4162 33.245 27.3752 33.5375C27.3349 33.8299 27.3148 34.1224 27.3148 34.4148C27.3148 36.3807 27.9608 38.103 29.2528 39.5815C30.5441 41.06 32.1728 41.9211 34.1387 42.1648ZM40.8651 39.679C41.1901 39.3215 41.4825 38.9355 41.7425 38.5209C42.0024 38.1069 42.2179 37.6763 42.3888 37.2292C42.5591 36.7827 42.689 36.3239 42.7787 35.8527C42.8678 35.3815 42.9123 34.9022 42.9123 34.4148C42.9123 32.8226 42.4697 31.3642 41.5846 30.0397C40.6987 28.7159 39.5166 27.7615 38.0381 27.1766V27.5909C38.0381 28.1271 37.8473 28.5859 37.4658 28.9674C37.0837 29.3495 36.6246 29.5406 36.0884 29.5406H34.1387V31.4903C34.1387 31.7665 34.0454 31.9979 33.8589 32.1844C33.6718 32.3715 33.4401 32.4651 33.1639 32.4651H31.2142V34.4148H37.0632C37.3394 34.4148 37.5711 34.5081 37.7583 34.6946C37.9448 34.8818 38.0381 35.1135 38.0381 35.3897V38.3142H39.0129C39.4353 38.3142 39.8172 38.4399 40.1584 38.6914C40.4996 38.9436 40.7351 39.2728 40.8651 39.679Z" fill="#BD32FF"/>
</svg>
